<svg xmlns="http://www.w3.org/2000/svg" viewBox="0 0 256 256" role="img" aria-labelledby="title desc">
  <title id="title">AppleCreek Livestream Switcher</title>
  <desc id="desc">Blue rounded square with AC and a play symbol.</desc>
  <defs>
    <linearGradient id="bg" x1="0" y1="0" x2="1" y2="1">
      <stop offset="0%" stop-color="#0F6E8C"/>
      <stop offset="100%" stop-color="#0A3B5D"/>
    </linearGradient>
  </defs>
  <rect x="8" y="8" width="240" height="240" rx="44" fill="url(#bg)"/>
  <circle cx="128" cy="128" r="84" fill="none" stroke="#FFFFFF" stroke-opacity="0.24" stroke-width="6"/>
  <path d="M106 92H92l-18 72h14l4-16h28l4 16h14l-18-72h-14zm-11 44 11-27 11 27H95z" fill="#FFFFFF"/>
  <path d="M184 151c-5 9-14 14-26 14-17 0-29-11-29-37 0-25 12-37 29-37 12 0 21 5 26 14l-11 6c-3-5-8-8-15-8-10 0-16 7-16 25s6 25 16 25c7 0 12-3 15-8l11 6z" fill="#FFFFFF"/>
  <path d="M149 114l42 24-42 24z" fill="#E9F5FF" fill-opacity="0.9"/>
</svg>
